<svg width="24" height="24" viewBox="0 0 24 24" fill="none" xmlns="http://www.w3.org/2000/svg">
<path d="M9 15L15 9" stroke="#161C21" stroke-width="1.5" stroke-linecap="round"/>
<path d="M15.5 14.5C15.5 14.7652 15.3946 15.0196 15.2071 15.2071C15.0196 15.3946 14.7652 15.5 14.5 15.5C14.2348 15.5 13.9804 15.3946 13.7929 15.2071C13.6054 15.0196 13.5 14.7652 13.5 14.5C13.5 14.2348 13.6054 13.9804 13.7929 13.7929C13.9804 13.6054 14.2348 13.5 14.5 13.5C14.7652 13.5 15.0196 13.6054 15.2071 13.7929C15.3946 13.9804 15.5 14.2348 15.5 14.5ZM10.5 9.5C10.5 9.76522 10.3946 10.0196 10.2071 10.2071C10.0196 10.3946 9.76522 10.5 9.5 10.5C9.23478 10.5 8.98043 10.3946 8.79289 10.2071C8.60536 10.0196 8.5 9.76522 8.5 9.5C8.5 9.23478 8.60536 8.98043 8.79289 8.79289C8.98043 8.60536 9.23478 8.5 9.5 8.5C9.76522 8.5 10.0196 8.60536 10.2071 8.79289C10.3946 8.98043 10.5 9.23478 10.5 9.5Z" fill="#161C21"/>
<path d="M14.0042 4H9.99616C6.21816 4 4.33016 4 3.15616 5.172C2.27616 6.049 2.05616 7.326 2.00016 9.494C1.99316 9.772 2.22116 9.994 2.49016 10.065C2.91839 10.1767 3.29752 10.4272 3.56821 10.7773C3.8389 11.1275 3.98589 11.5574 3.98616 12C3.98616 12.929 3.35216 13.71 2.49216 13.935C2.22216 14.005 1.99416 14.227 2.00216 14.505C2.05716 16.675 2.27816 17.951 3.15616 18.828M18.0002 4.1C19.3092 4.228 20.1892 4.517 20.8452 5.172C21.7232 6.049 21.9452 7.326 22.0002 9.494C22.0072 9.772 21.7792 9.994 21.5102 10.065C21.082 10.1768 20.703 10.4274 20.4323 10.7775C20.1616 11.1276 20.0146 11.5575 20.0142 12C20.0142 12.929 20.6482 13.71 21.5082 13.935C21.7782 14.005 22.0062 14.227 21.9982 14.505C21.9432 16.675 21.7222 17.951 20.8442 18.828C19.6702 20 17.7822 20 14.0042 20H9.99616C8.83016 20 7.84116 20 7.00016 19.965" stroke="#161C21" stroke-width="1.5" stroke-linecap="round"/>
</svg>
