<svg width="24" height="24" viewBox="0 0 24 24" fill="none" xmlns="http://www.w3.org/2000/svg">
<path d="M11.7435 1.84666L12.0763 1.0682C11.9711 1.0232 11.8579 1 11.7435 1C11.6291 1 11.5159 1.0232 11.4107 1.0682L11.7435 1.84666ZM11.7435 22.1541L11.3238 22.8886C11.4516 22.9616 11.5963 23 11.7435 23C11.8907 23 12.0354 22.9616 12.1632 22.8886L11.7435 22.1541ZM11.4096 1.06933L4.19814 4.15945L4.86152 5.71636L12.0752 2.62511L11.4096 1.06933ZM3 5.97471V13.7141H4.69229V5.97471H3ZM6.83698 20.3253L11.3238 22.8886L12.1632 21.4197L7.67636 18.8553L6.83698 20.3253ZM12.1632 22.8886L16.65 20.3253L15.8106 18.8553L11.3238 21.4197L12.1632 22.8886ZM20.487 13.713V5.97584H18.7947V13.7152L20.487 13.713ZM19.2911 4.16058L12.0763 1.06933L11.4107 2.62398L18.6243 5.71636L19.2911 4.16058ZM20.487 5.97584C20.487 5.18611 20.0165 4.47196 19.2911 4.16058L18.6243 5.71636C18.675 5.73821 18.7182 5.77443 18.7484 5.82056C18.7787 5.86668 18.7948 5.92067 18.7947 5.97584H20.487ZM16.65 20.3253C17.8155 19.6593 18.7843 18.697 19.4581 17.536C20.1319 16.375 20.4869 15.0565 20.487 13.7141H18.7947C18.7945 14.758 18.5184 15.7833 17.9943 16.6862C17.4703 17.589 16.717 18.3373 15.8106 18.8553L16.65 20.3253ZM3 13.7141C3.00012 15.0565 3.35508 16.375 4.0289 17.536C4.70273 18.697 5.67147 19.6593 6.83698 20.3253L7.67636 18.8553C6.76986 18.3372 6.01642 17.5887 5.49237 16.6857C4.96833 15.7826 4.69231 14.7571 4.69229 13.713L3 13.7141ZM4.19588 4.15945C3.84096 4.31173 3.5385 4.56476 3.32593 4.88721C3.11337 5.20966 3.00005 5.5885 3 5.97471H4.69229C4.69229 5.86189 4.75998 5.75923 4.86377 5.7141L4.19588 4.15945Z" fill="#161C21"/>
<path d="M15.1285 9.74402L10.6158 14.2568L8.35938 12.0004" stroke="#161C21" stroke-width="1.69229" stroke-linecap="round" stroke-linejoin="round"/>
</svg>
